<?xml version="1.0" encoding="UTF-8" standalone="no"?>
<!DOCTYPE svg PUBLIC "-//W3C//DTD SVG 1.1//EN"
 "http://www.w3.org/Graphics/SVG/1.1/DTD/svg11.dtd">
<!-- Generated by graphviz version 2.40.1 (20161225.0304)
 -->
<!-- Title: G Pages: 1 -->
<svg width="142pt" height="204pt"
 viewBox="0.00 0.00 142.00 204.00" xmlns="http://www.w3.org/2000/svg" xmlns:xlink="http://www.w3.org/1999/xlink">
<g id="graph0" class="graph" transform="scale(1 1) rotate(0) translate(4 200)">
<title>G</title>
<polygon fill="#ffffff" stroke="transparent" points="-4,4 -4,-200 138,-200 138,4 -4,4"/>
<g id="clust1" class="cluster">
<title>cluster_Global</title>
<path fill="none" stroke="#c0c0c0" d="M20,-8C20,-8 114,-8 114,-8 120,-8 126,-14 126,-20 126,-20 126,-176 126,-176 126,-182 120,-188 114,-188 114,-188 20,-188 20,-188 14,-188 8,-182 8,-176 8,-176 8,-20 8,-20 8,-14 14,-8 20,-8"/>
<text text-anchor="middle" x="67" y="-175.2" font-family="Times,serif" font-size="11.00" fill="#c0c0c0">Global</text>
</g>
<g id="clust2" class="cluster">
<title>cluster_\tomk79</title>
<path fill="none" stroke="#c0c0c0" d="M28,-16C28,-16 106,-16 106,-16 112,-16 118,-22 118,-28 118,-28 118,-148 118,-148 118,-154 112,-160 106,-160 106,-160 28,-160 28,-160 22,-160 16,-154 16,-148 16,-148 16,-28 16,-28 16,-22 22,-16 28,-16"/>
<text text-anchor="middle" x="67" y="-147.2" font-family="Times,serif" font-size="11.00" fill="#c0c0c0">tomk79</text>
</g>
<g id="clust3" class="cluster">
<title>cluster_\tomk79\pickles2</title>
<path fill="none" stroke="#c0c0c0" d="M36,-24C36,-24 98,-24 98,-24 104,-24 110,-30 110,-36 110,-36 110,-120 110,-120 110,-126 104,-132 98,-132 98,-132 36,-132 36,-132 30,-132 24,-126 24,-120 24,-120 24,-36 24,-36 24,-30 30,-24 36,-24"/>
<text text-anchor="middle" x="67" y="-119.2" font-family="Times,serif" font-size="11.00" fill="#c0c0c0">pickles2</text>
</g>
<g id="clust4" class="cluster">
<title>cluster_\tomk79\pickles2\git</title>
<path fill="none" stroke="#c0c0c0" d="M44,-32C44,-32 90,-32 90,-32 96,-32 102,-38 102,-44 102,-44 102,-92 102,-92 102,-98 96,-104 90,-104 90,-104 44,-104 44,-104 38,-104 32,-98 32,-92 32,-92 32,-44 32,-44 32,-38 38,-32 44,-32"/>
<text text-anchor="middle" x="67" y="-91.2" font-family="Times,serif" font-size="11.00" fill="#c0c0c0">git</text>
</g>
<!-- \\tomk79\\pickles2\\git\\main -->
<g id="node1" class="node">
<title>\\tomk79\\pickles2\\git\\main</title>
<polygon fill="none" stroke="#000000" points="94,-76 40,-76 40,-40 94,-40 94,-76"/>
<text text-anchor="middle" x="67" y="-55.2" font-family="Courier,monospace" font-size="11.00" fill="#000000">main</text>
</g>
</g>
</svg>
